<?xml version="1.0" encoding="utf-8"?>
<!-- Generator: Adobe Illustrator 16.0.0, SVG Export Plug-In . SVG Version: 6.00 Build 0)  -->
<!DOCTYPE svg PUBLIC "-//W3C//DTD SVG 1.1//EN" "http://www.w3.org/Graphics/SVG/1.1/DTD/svg11.dtd">
<svg version="1.1" id="Laag_1" xmlns="http://www.w3.org/2000/svg" xmlns:xlink="http://www.w3.org/1999/xlink" x="0px" y="0px"
	 width="162.72px" height="22.397px" viewBox="0 0 162.72 22.397" enable-background="new 0 0 162.72 22.397" xml:space="preserve">
<g>
	<path fill="#FFFFFF" d="M27.555,4.554v4.099c0,0.385,0.101,0.69,0.303,0.918c0.203,0.228,0.486,0.341,0.85,0.341
		c0.365,0,0.714-0.177,1.048-0.531l0.698,1.199c-0.597,0.537-1.258,0.805-1.981,0.805c-0.724,0-1.341-0.25-1.852-0.751
		c-0.511-0.501-0.767-1.177-0.767-2.027V0.653h1.7v2.535h2.125v1.366H27.555z"/>
	<path fill="#FFFFFF" d="M33.141,6.892v4.372h-1.7V0.015h1.7V4.66c0.243-0.496,0.61-0.885,1.101-1.169
		c0.491-0.283,1.02-0.425,1.586-0.425c0.911,0,1.647,0.278,2.208,0.835c0.562,0.557,0.843,1.361,0.843,2.414v4.949h-1.7V6.831
		c0-1.488-0.618-2.231-1.852-2.231c-0.587,0-1.098,0.195-1.533,0.584S33.141,6.143,33.141,6.892z"/>
	<path fill="#FFFFFF" d="M44.557,3.066c1.103,0,2.019,0.306,2.748,0.918s1.098,1.409,1.108,2.391l0.015,0.031l-5.89,2.474
		c0.526,0.648,1.242,0.972,2.148,0.972s1.652-0.354,2.239-1.063l1.001,1.108c-0.961,0.992-2.095,1.488-3.4,1.488
		c-1.144,0-2.125-0.38-2.945-1.139s-1.229-1.761-1.229-3.006c0-0.86,0.212-1.617,0.638-2.269c0.425-0.653,0.951-1.133,1.579-1.442
		C43.195,3.221,43.858,3.066,44.557,3.066z M41.991,7.271c0,0.131,0.005,0.228,0.015,0.288l4.478-1.928
		C46.14,4.964,45.528,4.63,44.647,4.63c-0.668,0-1.278,0.233-1.829,0.698C42.267,5.794,41.991,6.441,41.991,7.271z"/>
	<path fill="#FFFFFF" d="M57.383,11.264H55.44l-2.793-8.076h1.761l2.004,6.102l2.003-6.102h1.761L62.18,9.29l2.004-6.102h1.761
		l-2.793,8.076h-1.943l-1.913-5.525L57.383,11.264z"/>
	<path fill="#FFFFFF" d="M73.839,10.178c-0.81,0.805-1.822,1.207-3.036,1.207s-2.227-0.402-3.036-1.207s-1.214-1.789-1.214-2.953
		c0-1.164,0.405-2.148,1.214-2.952c0.81-0.805,1.822-1.207,3.036-1.207s2.226,0.402,3.036,1.207c0.81,0.804,1.214,1.789,1.214,2.952
		C75.053,8.39,74.648,9.374,73.839,10.178z M68.974,9.131c0.48,0.491,1.09,0.736,1.829,0.736s1.349-0.245,1.829-0.736
		c0.48-0.491,0.721-1.125,0.721-1.905c0-0.779-0.241-1.414-0.721-1.905s-1.09-0.736-1.829-0.736s-1.349,0.246-1.829,0.736
		c-0.481,0.491-0.721,1.126-0.721,1.905C68.252,8.005,68.493,8.64,68.974,9.131z"/>
	<path fill="#FFFFFF" d="M80.852,4.782c-0.84,0-1.473,0.273-1.897,0.82c-0.425,0.546-0.638,1.28-0.638,2.201v3.461h-1.7V3.188h1.7
		v1.624c0.273-0.506,0.645-0.921,1.116-1.245s0.969-0.491,1.495-0.501l0.016,1.715C80.912,4.782,80.882,4.782,80.852,4.782z"/>
	<path fill="#FFFFFF" d="M86.316,10.687c-0.404,0.465-0.972,0.698-1.7,0.698s-1.313-0.218-1.753-0.653
		c-0.44-0.435-0.661-1.078-0.661-1.928V0.653h1.7v7.954c0,0.81,0.304,1.215,0.911,1.215c0.354,0,0.607-0.126,0.759-0.38
		L86.316,10.687z"/>
	<path fill="#FFFFFF" d="M87.758,10.231c-0.759-0.769-1.139-1.781-1.139-3.036s0.391-2.256,1.17-3.005s1.707-1.124,2.785-1.124
		s1.945,0.456,2.604,1.366V0h1.7v11.264h-1.7v-1.214c-0.628,0.891-1.543,1.336-2.748,1.336C89.408,11.385,88.518,11,87.758,10.231z
		 M88.32,7.264c0,0.774,0.248,1.404,0.743,1.89c0.496,0.485,1.078,0.729,1.746,0.729s1.234-0.245,1.7-0.736
		c0.465-0.491,0.698-1.121,0.698-1.89s-0.233-1.412-0.698-1.928c-0.466-0.516-1.037-0.774-1.715-0.774
		c-0.679,0-1.261,0.258-1.746,0.774C88.563,5.844,88.32,6.49,88.32,7.264z"/>
	<path fill="#FFFFFF" d="M107.523,10.178c-0.811,0.805-1.822,1.207-3.037,1.207c-1.214,0-2.227-0.402-3.035-1.207
		c-0.811-0.805-1.215-1.789-1.215-2.953c0-1.164,0.404-2.148,1.215-2.952c0.809-0.805,1.821-1.207,3.035-1.207
		c1.215,0,2.227,0.402,3.037,1.207c0.809,0.804,1.214,1.789,1.214,2.952C108.737,8.39,108.332,9.374,107.523,10.178z M102.658,9.131
		c0.48,0.491,1.09,0.736,1.828,0.736c0.739,0,1.35-0.245,1.83-0.736c0.48-0.491,0.721-1.125,0.721-1.905
		c0-0.779-0.24-1.414-0.721-1.905s-1.091-0.736-1.83-0.736c-0.738,0-1.348,0.246-1.828,0.736c-0.481,0.491-0.722,1.126-0.722,1.905
		C101.937,8.005,102.177,8.64,102.658,9.131z"/>
	<path fill="#FFFFFF" d="M112,3.127v1.427h2.126V5.92H112v5.343h-1.699V3.173c0-0.871,0.27-1.551,0.812-2.042
		c0.542-0.491,1.235-0.736,2.08-0.736s1.565,0.269,2.163,0.805l-0.698,1.366c-0.374-0.395-0.841-0.592-1.396-0.592
		C112.42,1.974,112,2.358,112,3.127z"/>
	<path fill="#FFFFFF" d="M121.048,6.892v4.372h-1.7V3.188h1.7V4.66c0.243-0.496,0.61-0.885,1.101-1.169
		c0.49-0.283,1.02-0.425,1.586-0.425c1.275,0,2.141,0.526,2.596,1.579c0.8-1.052,1.797-1.579,2.991-1.579
		c0.911,0,1.647,0.278,2.208,0.835c0.563,0.557,0.843,1.361,0.843,2.414v4.949h-1.7V6.831c0-1.488-0.617-2.231-1.852-2.231
		c-0.577,0-1.08,0.185-1.511,0.554s-0.655,0.908-0.675,1.617v4.493h-1.701V6.831c0-0.769-0.137-1.333-0.409-1.692
		c-0.273-0.359-0.704-0.539-1.29-0.539c-0.588,0-1.099,0.195-1.533,0.584C121.266,5.574,121.048,6.143,121.048,6.892z"/>
	<path fill="#FFFFFF" d="M134.998,10.231c-0.76-0.769-1.139-1.781-1.139-3.036s0.39-2.256,1.169-3.005s1.7-1.124,2.763-1.124
		s1.938,0.506,2.627,1.518V3.188h1.699v8.076h-1.699V9.943c-0.324,0.466-0.736,0.822-1.238,1.07c-0.5,0.248-1.004,0.372-1.51,0.372
		C136.647,11.385,135.757,11,134.998,10.231z M135.56,7.264c0,0.774,0.248,1.404,0.743,1.89c0.496,0.485,1.078,0.729,1.746,0.729
		s1.234-0.245,1.701-0.736c0.465-0.491,0.697-1.121,0.697-1.89s-0.232-1.412-0.697-1.928c-0.467-0.516-1.038-0.774-1.716-0.774
		c-0.679,0-1.261,0.258-1.746,0.774S135.56,6.49,135.56,7.264z"/>
	<path fill="#FFFFFF" d="M148.539,3.066c1.082,0,2.008,0.375,2.777,1.124s1.154,1.746,1.154,2.99s-0.383,2.257-1.146,3.036
		s-1.654,1.169-2.672,1.169c-1.017,0-1.93-0.445-2.74-1.336v4.159h-1.699V3.188h1.699V4.6C146.58,3.578,147.456,3.066,148.539,3.066
		z M145.883,7.241c0,0.77,0.232,1.399,0.697,1.89c0.466,0.491,1.033,0.736,1.701,0.736s1.25-0.243,1.745-0.729
		c0.495-0.486,0.744-1.116,0.744-1.89s-0.243-1.417-0.729-1.928c-0.485-0.511-1.067-0.767-1.745-0.767
		c-0.679,0-1.25,0.255-1.716,0.767C146.115,5.832,145.883,6.472,145.883,7.241z"/>
	<path fill="#FFFFFF" d="M159.803,8.85c0,0.769-0.279,1.384-0.836,1.844c-0.557,0.461-1.27,0.691-2.141,0.691
		c-0.586,0-1.196-0.106-1.828-0.319c-0.633-0.212-1.191-0.511-1.678-0.896l0.82-1.321c0.94,0.708,1.852,1.063,2.732,1.063
		c0.384,0,0.688-0.088,0.91-0.266c0.223-0.177,0.334-0.402,0.334-0.675c0-0.405-0.537-0.769-1.609-1.093
		c-0.081-0.03-0.142-0.05-0.182-0.061c-1.68-0.456-2.52-1.214-2.52-2.277c0-0.749,0.29-1.348,0.872-1.799
		c0.582-0.45,1.339-0.675,2.27-0.675s1.812,0.273,2.642,0.82l-0.638,1.26c-0.658-0.435-1.372-0.653-2.141-0.653
		c-0.405,0-0.733,0.074-0.986,0.22c-0.253,0.147-0.38,0.367-0.38,0.661c0,0.263,0.131,0.455,0.395,0.577
		c0.183,0.091,0.438,0.177,0.768,0.258c0.328,0.082,0.619,0.162,0.872,0.243s0.499,0.172,0.736,0.273
		c0.237,0.102,0.493,0.243,0.767,0.425C159.529,7.514,159.803,8.081,159.803,8.85z"/>
</g>
<g>
	<g>
		<path fill="#FFDA5B" d="M20.348,0.163h-4.516l-3.215,3.341l2.258,2.347L20.348,0.163z"/>
		<polygon fill="#FFDA5B" points="9.39,0.182 11.555,2.401 13.709,0.163 10.169,0.163 		"/>
		<path fill="#FFDA5B" d="M11.743,11.253l2.87,0.012h1.088l7.064-7.341V0.163h-0.295L11.743,11.253z"/>
		<path fill="#FFDA5B" d="M3.559,11.265L0,7.566v3.698H3.559z"/>
		<path fill="#FFDA5B" d="M9.997,2.964l-6.139,6.38l1.824,1.92h3.982l4.149-4.311L9.997,2.964z"/>
		<path fill="#FFDA5B" d="M22.766,11.265V6.129l-4.942,5.135H22.766z"/>
	</g>
	<polygon fill="#FFDA5B" points="0.004,0.163 0.004,5.438 2.848,8.282 9.175,1.956 7.502,0.163 	"/>
</g>
<g>
	<path fill="#FFFFFF" d="M27.6,19.751h-1.33v-3.665h1.351c0.561,0,0.977,0.171,1.249,0.512c0.271,0.341,0.407,0.774,0.407,1.298
		c0,0.568-0.146,1.019-0.439,1.353C28.545,19.584,28.132,19.751,27.6,19.751z M27.626,16.68h-0.665v2.484h0.627
		c0.293,0,0.528-0.097,0.705-0.291c0.177-0.194,0.266-0.519,0.266-0.976c0-0.38-0.075-0.679-0.225-0.895
		C28.184,16.788,27.948,16.68,27.626,16.68z"/>
	<path fill="#FFFFFF" d="M33.598,16.087v3.665h-0.691v-3.665H33.598z"/>
	<path fill="#FFFFFF" d="M38.733,17.747h1.329v1.811c-0.139,0.075-0.307,0.139-0.504,0.191c-0.196,0.053-0.407,0.078-0.632,0.078
		c-0.568,0-0.995-0.184-1.278-0.552c-0.284-0.368-0.426-0.814-0.426-1.339c0-0.557,0.161-1.017,0.482-1.38
		c0.321-0.363,0.757-0.544,1.308-0.544c0.107,0,0.26,0.018,0.458,0.054c0.198,0.036,0.378,0.097,0.539,0.183l-0.22,0.501
		c-0.157-0.047-0.285-0.083-0.383-0.111c-0.098-0.027-0.226-0.04-0.383-0.04c-0.321,0-0.582,0.11-0.78,0.331
		c-0.198,0.221-0.297,0.554-0.297,1c0,0.402,0.081,0.721,0.244,0.957s0.403,0.353,0.721,0.353c0.118,0,0.22-0.006,0.306-0.019
		c0.085-0.013,0.161-0.026,0.225-0.041v-0.895h-0.767L38.733,17.747z"/>
	<path fill="#FFFFFF" d="M44.442,16.087v3.665H43.75v-3.665H44.442z"/>
	<path fill="#FFFFFF" d="M47.792,16.087h2.948l0.112,0.55h-1.249v3.115h-0.703v-3.115h-1.109V16.087z"/>
	<path fill="#FFFFFF" d="M55.79,16.087l1.415,3.567l-0.697,0.097l-0.327-0.862h-1.383l-0.322,0.862H53.78l1.42-3.665H55.79z
		 M55.479,17.046l-0.477,1.277h0.965L55.479,17.046z"/>
	<path fill="#FFFFFF" d="M62.962,19.751h-2.407v-3.665h0.691v3.12h1.608L62.962,19.751z"/>
	<path fill="#FFFFFF" d="M72.032,18.641l-0.874-1.126v2.236h-0.691v-3.665h0.439l1.233,1.692l1.121-1.692h0.423v3.665h-0.702v-2.112
		L72.3,18.604L72.032,18.641z"/>
	<path fill="#FFFFFF" d="M79.039,16.087l1.415,3.567l-0.697,0.097l-0.327-0.862h-1.383l-0.322,0.862h-0.697l1.42-3.665H79.039z
		 M78.728,17.046l-0.477,1.277h0.965L78.728,17.046z"/>
	<path fill="#FFFFFF" d="M83.804,19.751v-3.665h1.142c0.396,0,0.736,0.091,1.019,0.272c0.282,0.181,0.424,0.482,0.424,0.902
		c0,0.417-0.152,0.723-0.456,0.919s-0.648,0.293-1.034,0.293h-0.402v1.277H83.804z M84.924,16.669h-0.429v1.229h0.439
		c0.207,0,0.376-0.047,0.504-0.143c0.129-0.095,0.2-0.245,0.215-0.45c0-0.237-0.064-0.402-0.193-0.496
		C85.331,16.716,85.152,16.669,84.924,16.669z"/>
	<path fill="#FFFFFF" d="M89.925,19.751v-3.665h1.142c0.396,0,0.736,0.091,1.019,0.272c0.282,0.181,0.424,0.482,0.424,0.902
		c0,0.417-0.152,0.723-0.456,0.919s-0.648,0.293-1.034,0.293h-0.402v1.277H89.925z M91.045,16.669h-0.429v1.229h0.439
		c0.207,0,0.376-0.047,0.504-0.143c0.129-0.095,0.2-0.245,0.215-0.45c0-0.237-0.064-0.402-0.193-0.496
		C91.452,16.716,91.273,16.669,91.045,16.669z"/>
	<path fill="#FFFFFF" d="M96.738,16.087v3.665h-0.691v-3.665H96.738z"/>
	<path fill="#FFFFFF" d="M103.584,16.087v3.665h-0.697l-1.688-2.452v2.452h-0.691v-3.665h0.691l1.688,2.447v-2.447H103.584z"/>
	<path fill="#FFFFFF" d="M108.719,17.747h1.329v1.811c-0.14,0.075-0.308,0.139-0.504,0.191c-0.196,0.053-0.407,0.078-0.633,0.078
		c-0.567,0-0.994-0.184-1.278-0.552c-0.284-0.368-0.426-0.814-0.426-1.339c0-0.557,0.161-1.017,0.482-1.38
		c0.321-0.363,0.758-0.544,1.308-0.544c0.107,0,0.26,0.018,0.459,0.054c0.198,0.036,0.378,0.097,0.538,0.183l-0.22,0.501
		c-0.157-0.047-0.285-0.083-0.383-0.111c-0.099-0.027-0.227-0.04-0.384-0.04c-0.321,0-0.581,0.11-0.779,0.331
		c-0.199,0.221-0.298,0.554-0.298,1c0,0.402,0.081,0.721,0.244,0.957c0.162,0.235,0.402,0.353,0.721,0.353
		c0.118,0,0.22-0.006,0.306-0.019s0.161-0.026,0.225-0.041v-0.895h-0.767L108.719,17.747z"/>
	<path fill="#FFFFFF" d="M120.126,16.75c-0.172-0.054-0.308-0.093-0.407-0.116c-0.101-0.023-0.222-0.035-0.364-0.035
		c-0.29,0-0.514,0.118-0.671,0.355s-0.235,0.563-0.235,0.976c0,0.355,0.066,0.663,0.198,0.921s0.354,0.388,0.665,0.388
		c0.153,0,0.297-0.017,0.432-0.049c0.134-0.032,0.256-0.072,0.367-0.119l0.263,0.518c-0.14,0.072-0.308,0.129-0.504,0.172
		c-0.197,0.043-0.37,0.064-0.521,0.064c-0.568,0-0.98-0.183-1.238-0.549c-0.257-0.367-0.386-0.814-0.386-1.342
		c0-0.564,0.142-1.026,0.426-1.385c0.284-0.359,0.692-0.539,1.226-0.539c0.106,0,0.255,0.018,0.444,0.054
		c0.189,0.036,0.363,0.097,0.521,0.183L120.126,16.75z"/>
	<path fill="#FFFFFF" d="M123.771,17.936c0-0.564,0.146-1.025,0.439-1.382s0.706-0.542,1.238-0.552c0.571,0,0.995,0.185,1.271,0.555
		c0.275,0.37,0.413,0.817,0.413,1.342c0,0.568-0.147,1.031-0.442,1.391s-0.709,0.539-1.241,0.539c-0.568,0-0.99-0.184-1.265-0.552
		C123.909,18.906,123.771,18.46,123.771,17.936z M124.495,17.93c0,0.384,0.077,0.699,0.23,0.943s0.393,0.367,0.718,0.367
		c0.294,0,0.527-0.11,0.703-0.329c0.175-0.219,0.263-0.557,0.263-1.013c0-0.38-0.077-0.693-0.231-0.938
		c-0.153-0.244-0.393-0.366-0.718-0.366c-0.286,0-0.519,0.12-0.697,0.361S124.495,17.521,124.495,17.93z"/>
	<path fill="#FFFFFF" d="M132.321,18.641l-0.874-1.126v2.236h-0.691v-3.665h0.439l1.233,1.692l1.12-1.692h0.424v3.665h-0.703v-2.112
		l-0.681,0.964L132.321,18.641z"/>
	<path fill="#FFFFFF" d="M137.734,19.751v-3.665h1.142c0.396,0,0.736,0.091,1.019,0.272c0.282,0.181,0.424,0.482,0.424,0.902
		c0,0.417-0.152,0.723-0.456,0.919s-0.648,0.293-1.034,0.293h-0.402v1.277H137.734z M138.854,16.669h-0.429v1.229h0.439
		c0.207,0,0.376-0.047,0.504-0.143c0.129-0.095,0.2-0.245,0.215-0.45c0-0.237-0.064-0.402-0.193-0.496
		C139.262,16.716,139.083,16.669,138.854,16.669z"/>
	<path fill="#FFFFFF" d="M145.448,16.087l1.415,3.567l-0.696,0.097l-0.327-0.862h-1.383l-0.321,0.862h-0.697l1.421-3.665H145.448z
		 M145.138,17.046l-0.478,1.277h0.965L145.138,17.046z"/>
	<path fill="#FFFFFF" d="M153.291,16.087v3.665h-0.697l-1.688-2.452v2.452h-0.691v-3.665h0.691l1.688,2.447v-2.447H153.291z"/>
	<path fill="#FFFFFF" d="M157.863,19.751v-1.428l-1.222-2.145l0.718-0.092l0.848,1.531l0.884-1.531h0.734l-1.265,2.264v1.401
		H157.863z"/>
</g>
</svg>
